G04 #@! TF.GenerationSoftware,KiCad,Pcbnew,(5.0.1)-3*
G04 #@! TF.CreationDate,2019-03-05T12:35:37-07:00*
G04 #@! TF.ProjectId,BatteryPowerLevel,42617474657279506F7765724C657665,rev?*
G04 #@! TF.SameCoordinates,Original*
G04 #@! TF.FileFunction,Soldermask,Bot*
G04 #@! TF.FilePolarity,Negative*
%FSLAX46Y46*%
G04 Gerber Fmt 4.6, Leading zero omitted, Abs format (unit mm)*
G04 Created by KiCad (PCBNEW (5.0.1)-3) date 2019-03-05 12:35:37 PM*
%MOMM*%
%LPD*%
G01*
G04 APERTURE LIST*
%ADD10C,0.100000*%
G04 APERTURE END LIST*
D10*
G36*
X134960935Y-101368429D02*
X135057534Y-101387644D01*
X135330517Y-101500717D01*
X135572920Y-101662687D01*
X135576197Y-101664876D01*
X135785124Y-101873803D01*
X135949284Y-102119485D01*
X136062356Y-102392467D01*
X136120000Y-102682261D01*
X136120000Y-102977739D01*
X136062356Y-103267533D01*
X135949284Y-103540515D01*
X135785124Y-103786197D01*
X135576197Y-103995124D01*
X135576194Y-103995126D01*
X135330517Y-104159283D01*
X135057534Y-104272356D01*
X134960935Y-104291571D01*
X134767739Y-104330000D01*
X134472261Y-104330000D01*
X134279065Y-104291571D01*
X134182466Y-104272356D01*
X133909483Y-104159283D01*
X133663806Y-103995126D01*
X133663803Y-103995124D01*
X133454876Y-103786197D01*
X133290716Y-103540515D01*
X133177644Y-103267533D01*
X133120000Y-102977739D01*
X133120000Y-102682261D01*
X133177644Y-102392467D01*
X133290716Y-102119485D01*
X133454876Y-101873803D01*
X133663803Y-101664876D01*
X133667080Y-101662687D01*
X133909483Y-101500717D01*
X134182466Y-101387644D01*
X134279065Y-101368429D01*
X134472261Y-101330000D01*
X134767739Y-101330000D01*
X134960935Y-101368429D01*
X134960935Y-101368429D01*
G37*
G36*
X145844770Y-99059372D02*
X145960689Y-99082429D01*
X146142678Y-99157811D01*
X146306463Y-99267249D01*
X146445751Y-99406537D01*
X146555189Y-99570322D01*
X146630571Y-99752311D01*
X146669000Y-99945509D01*
X146669000Y-100142491D01*
X146630571Y-100335689D01*
X146555189Y-100517678D01*
X146445751Y-100681463D01*
X146306463Y-100820751D01*
X146142678Y-100930189D01*
X145960689Y-101005571D01*
X145844770Y-101028628D01*
X145767493Y-101044000D01*
X145570507Y-101044000D01*
X145493230Y-101028628D01*
X145377311Y-101005571D01*
X145195322Y-100930189D01*
X145031537Y-100820751D01*
X144892249Y-100681463D01*
X144782811Y-100517678D01*
X144707429Y-100335689D01*
X144669000Y-100142491D01*
X144669000Y-99945509D01*
X144707429Y-99752311D01*
X144782811Y-99570322D01*
X144892249Y-99406537D01*
X145031537Y-99267249D01*
X145195322Y-99157811D01*
X145377311Y-99082429D01*
X145493230Y-99059372D01*
X145570507Y-99044000D01*
X145767493Y-99044000D01*
X145844770Y-99059372D01*
X145844770Y-99059372D01*
G37*
G36*
X140129770Y-98932372D02*
X140245689Y-98955429D01*
X140427678Y-99030811D01*
X140591463Y-99140249D01*
X140730751Y-99279537D01*
X140840189Y-99443322D01*
X140915571Y-99625311D01*
X140954000Y-99818509D01*
X140954000Y-100015491D01*
X140915571Y-100208689D01*
X140840189Y-100390678D01*
X140730751Y-100554463D01*
X140591463Y-100693751D01*
X140427678Y-100803189D01*
X140245689Y-100878571D01*
X140129770Y-100901628D01*
X140052493Y-100917000D01*
X139855507Y-100917000D01*
X139778230Y-100901628D01*
X139662311Y-100878571D01*
X139480322Y-100803189D01*
X139316537Y-100693751D01*
X139177249Y-100554463D01*
X139067811Y-100390678D01*
X138992429Y-100208689D01*
X138954000Y-100015491D01*
X138954000Y-99818509D01*
X138992429Y-99625311D01*
X139067811Y-99443322D01*
X139177249Y-99279537D01*
X139316537Y-99140249D01*
X139480322Y-99030811D01*
X139662311Y-98955429D01*
X139778230Y-98932372D01*
X139855507Y-98917000D01*
X140052493Y-98917000D01*
X140129770Y-98932372D01*
X140129770Y-98932372D01*
G37*
G36*
X151178770Y-98932372D02*
X151294689Y-98955429D01*
X151476678Y-99030811D01*
X151640463Y-99140249D01*
X151779751Y-99279537D01*
X151889189Y-99443322D01*
X151964571Y-99625311D01*
X152003000Y-99818509D01*
X152003000Y-100015491D01*
X151964571Y-100208689D01*
X151889189Y-100390678D01*
X151779751Y-100554463D01*
X151640463Y-100693751D01*
X151476678Y-100803189D01*
X151294689Y-100878571D01*
X151178770Y-100901628D01*
X151101493Y-100917000D01*
X150904507Y-100917000D01*
X150827230Y-100901628D01*
X150711311Y-100878571D01*
X150529322Y-100803189D01*
X150365537Y-100693751D01*
X150226249Y-100554463D01*
X150116811Y-100390678D01*
X150041429Y-100208689D01*
X150003000Y-100015491D01*
X150003000Y-99818509D01*
X150041429Y-99625311D01*
X150116811Y-99443322D01*
X150226249Y-99279537D01*
X150365537Y-99140249D01*
X150529322Y-99030811D01*
X150711311Y-98955429D01*
X150827230Y-98932372D01*
X150904507Y-98917000D01*
X151101493Y-98917000D01*
X151178770Y-98932372D01*
X151178770Y-98932372D01*
G37*
G36*
X134960935Y-96368429D02*
X135057534Y-96387644D01*
X135330517Y-96500717D01*
X135572920Y-96662687D01*
X135576197Y-96664876D01*
X135785124Y-96873803D01*
X135785126Y-96873806D01*
X135898847Y-97044000D01*
X135949284Y-97119485D01*
X136062356Y-97392467D01*
X136120000Y-97682261D01*
X136120000Y-97977739D01*
X136062356Y-98267533D01*
X135949284Y-98540515D01*
X135785124Y-98786197D01*
X135576197Y-98995124D01*
X135576194Y-98995126D01*
X135330517Y-99159283D01*
X135057534Y-99272356D01*
X134960935Y-99291571D01*
X134767739Y-99330000D01*
X134472261Y-99330000D01*
X134279065Y-99291571D01*
X134182466Y-99272356D01*
X133909483Y-99159283D01*
X133663806Y-98995126D01*
X133663803Y-98995124D01*
X133454876Y-98786197D01*
X133290716Y-98540515D01*
X133177644Y-98267533D01*
X133120000Y-97977739D01*
X133120000Y-97682261D01*
X133177644Y-97392467D01*
X133290716Y-97119485D01*
X133341154Y-97044000D01*
X133454874Y-96873806D01*
X133454876Y-96873803D01*
X133663803Y-96664876D01*
X133667080Y-96662687D01*
X133909483Y-96500717D01*
X134182466Y-96387644D01*
X134279065Y-96368429D01*
X134472261Y-96330000D01*
X134767739Y-96330000D01*
X134960935Y-96368429D01*
X134960935Y-96368429D01*
G37*
G36*
X146669000Y-97044000D02*
X144669000Y-97044000D01*
X144669000Y-95044000D01*
X146669000Y-95044000D01*
X146669000Y-97044000D01*
X146669000Y-97044000D01*
G37*
G36*
X152003000Y-96917000D02*
X150003000Y-96917000D01*
X150003000Y-94917000D01*
X152003000Y-94917000D01*
X152003000Y-96917000D01*
X152003000Y-96917000D01*
G37*
G36*
X140954000Y-96917000D02*
X138954000Y-96917000D01*
X138954000Y-94917000D01*
X140954000Y-94917000D01*
X140954000Y-96917000D01*
X140954000Y-96917000D01*
G37*
G36*
X134960935Y-92478429D02*
X135057534Y-92497644D01*
X135330517Y-92610717D01*
X135572920Y-92772687D01*
X135576197Y-92774876D01*
X135785124Y-92983803D01*
X135949284Y-93229485D01*
X136062356Y-93502467D01*
X136120000Y-93792261D01*
X136120000Y-94087739D01*
X136062356Y-94377533D01*
X135949284Y-94650515D01*
X135785124Y-94896197D01*
X135576197Y-95105124D01*
X135576194Y-95105126D01*
X135330517Y-95269283D01*
X135057534Y-95382356D01*
X134960935Y-95401571D01*
X134767739Y-95440000D01*
X134472261Y-95440000D01*
X134279065Y-95401571D01*
X134182466Y-95382356D01*
X133909483Y-95269283D01*
X133663806Y-95105126D01*
X133663803Y-95105124D01*
X133454876Y-94896197D01*
X133290716Y-94650515D01*
X133177644Y-94377533D01*
X133120000Y-94087739D01*
X133120000Y-93792261D01*
X133177644Y-93502467D01*
X133290716Y-93229485D01*
X133454876Y-92983803D01*
X133663803Y-92774876D01*
X133667080Y-92772687D01*
X133909483Y-92610717D01*
X134182466Y-92497644D01*
X134279065Y-92478429D01*
X134472261Y-92440000D01*
X134767739Y-92440000D01*
X134960935Y-92478429D01*
X134960935Y-92478429D01*
G37*
G36*
X134960935Y-87478429D02*
X135057534Y-87497644D01*
X135330517Y-87610717D01*
X135572920Y-87772687D01*
X135576197Y-87774876D01*
X135785124Y-87983803D01*
X135949284Y-88229485D01*
X136062356Y-88502467D01*
X136120000Y-88792261D01*
X136120000Y-89087739D01*
X136062356Y-89377533D01*
X135949284Y-89650515D01*
X135785124Y-89896197D01*
X135576197Y-90105124D01*
X135576194Y-90105126D01*
X135330517Y-90269283D01*
X135057534Y-90382356D01*
X134960935Y-90401571D01*
X134767739Y-90440000D01*
X134472261Y-90440000D01*
X134279065Y-90401571D01*
X134182466Y-90382356D01*
X133909483Y-90269283D01*
X133663806Y-90105126D01*
X133663803Y-90105124D01*
X133454876Y-89896197D01*
X133290716Y-89650515D01*
X133177644Y-89377533D01*
X133120000Y-89087739D01*
X133120000Y-88792261D01*
X133177644Y-88502467D01*
X133290716Y-88229485D01*
X133454876Y-87983803D01*
X133663803Y-87774876D01*
X133667080Y-87772687D01*
X133909483Y-87610717D01*
X134182466Y-87497644D01*
X134279065Y-87478429D01*
X134472261Y-87440000D01*
X134767739Y-87440000D01*
X134960935Y-87478429D01*
X134960935Y-87478429D01*
G37*
M02*
