G04 #@! TF.GenerationSoftware,KiCad,Pcbnew,(5.0.1)-3*
G04 #@! TF.CreationDate,2019-03-05T12:35:37-07:00*
G04 #@! TF.ProjectId,BatteryPowerLevel,42617474657279506F7765724C657665,rev?*
G04 #@! TF.SameCoordinates,Original*
G04 #@! TF.FileFunction,Legend,Top*
G04 #@! TF.FilePolarity,Positive*
%FSLAX46Y46*%
G04 Gerber Fmt 4.6, Leading zero omitted, Abs format (unit mm)*
G04 Created by KiCad (PCBNEW (5.0.1)-3) date 2019-03-05 12:35:37 PM*
%MOMM*%
%LPD*%
G01*
G04 APERTURE LIST*
%ADD10C,0.150000*%
%ADD11R,0.800000X0.400000*%
%ADD12R,0.400000X0.800000*%
%ADD13R,0.700000X0.500000*%
%ADD14C,2.000000*%
%ADD15R,2.000000X2.000000*%
%ADD16R,0.500000X0.700000*%
%ADD17C,3.000000*%
%ADD18R,0.300000X0.600000*%
G04 APERTURE END LIST*
D10*
G04 #@! TO.C,DA3*
X139192000Y-90551000D02*
X138430000Y-90551000D01*
X138430000Y-90551000D02*
X138430000Y-88011000D01*
X138430000Y-88011000D02*
X139192000Y-88011000D01*
X139192000Y-88011000D02*
X139192000Y-90551000D01*
X139192000Y-89408000D02*
X138430000Y-89408000D01*
X138430000Y-89408000D02*
X138430000Y-89154000D01*
X138430000Y-89154000D02*
X139192000Y-89154000D01*
G04 #@! TO.C,DA1*
X135890000Y-85471000D02*
X135890000Y-84709000D01*
X136144000Y-85471000D02*
X135890000Y-85471000D01*
X136144000Y-84709000D02*
X136144000Y-85471000D01*
X134747000Y-84709000D02*
X137287000Y-84709000D01*
X134747000Y-85471000D02*
X134747000Y-84709000D01*
X137287000Y-85471000D02*
X134747000Y-85471000D01*
X137287000Y-84709000D02*
X137287000Y-85471000D01*
G04 #@! TO.C,DA2*
X141097000Y-86614000D02*
X141097000Y-87376000D01*
X141097000Y-87376000D02*
X138557000Y-87376000D01*
X138557000Y-87376000D02*
X138557000Y-86614000D01*
X138557000Y-86614000D02*
X141097000Y-86614000D01*
X139954000Y-86614000D02*
X139954000Y-87376000D01*
X139954000Y-87376000D02*
X139700000Y-87376000D01*
X139700000Y-87376000D02*
X139700000Y-86614000D01*
G04 #@! TO.C,DA4*
X140208000Y-90043000D02*
X140970000Y-90043000D01*
X140208000Y-90297000D02*
X140208000Y-90043000D01*
X140970000Y-90297000D02*
X140208000Y-90297000D01*
X140970000Y-88900000D02*
X140970000Y-91440000D01*
X140208000Y-88900000D02*
X140970000Y-88900000D01*
X140208000Y-91440000D02*
X140208000Y-88900000D01*
X140970000Y-91440000D02*
X140208000Y-91440000D01*
G04 #@! TO.C,DA5*
X138430000Y-92202000D02*
X139192000Y-92202000D01*
X138430000Y-92456000D02*
X138430000Y-92202000D01*
X139192000Y-92456000D02*
X138430000Y-92456000D01*
X139192000Y-91059000D02*
X139192000Y-93599000D01*
X138430000Y-91059000D02*
X139192000Y-91059000D01*
X138430000Y-93599000D02*
X138430000Y-91059000D01*
X139192000Y-93599000D02*
X138430000Y-93599000D01*
G04 #@! TO.C,DA6*
X140970000Y-92329000D02*
X140970000Y-93599000D01*
X140970000Y-93599000D02*
X140208000Y-93599000D01*
X140208000Y-93599000D02*
X140208000Y-92329000D01*
X140208000Y-92329000D02*
X140970000Y-92329000D01*
G04 #@! TO.C,DA7*
X141732000Y-94361000D02*
X141732000Y-101473000D01*
X141732000Y-101473000D02*
X138303000Y-101473000D01*
X138303000Y-101473000D02*
X138303000Y-94107000D01*
X138303000Y-94107000D02*
X141732000Y-94107000D01*
X141732000Y-94107000D02*
X141732000Y-94361000D01*
G04 #@! TO.C,DA8*
X137154000Y-102616000D02*
X137154000Y-101854000D01*
X138424000Y-102616000D02*
X137154000Y-102616000D01*
X138424000Y-101854000D02*
X138424000Y-102616000D01*
X137154000Y-101854000D02*
X138424000Y-101854000D01*
G04 #@! TO.C,DA9*
X139567000Y-102108000D02*
X140837000Y-102108000D01*
X140837000Y-102108000D02*
X140837000Y-102870000D01*
X140837000Y-102870000D02*
X139567000Y-102870000D01*
X139567000Y-102870000D02*
X139567000Y-102108000D01*
G04 #@! TO.C,DA10*
X140843000Y-103632000D02*
X140843000Y-104394000D01*
X139573000Y-103632000D02*
X140843000Y-103632000D01*
X139573000Y-104394000D02*
X139573000Y-103632000D01*
X140843000Y-104394000D02*
X139573000Y-104394000D01*
G04 #@! TO.C,DB1*
X144526000Y-84709000D02*
X144526000Y-85471000D01*
X144526000Y-85471000D02*
X141986000Y-85471000D01*
X141986000Y-85471000D02*
X141986000Y-84709000D01*
X141986000Y-84709000D02*
X144526000Y-84709000D01*
X143383000Y-84709000D02*
X143383000Y-85471000D01*
X143383000Y-85471000D02*
X143129000Y-85471000D01*
X143129000Y-85471000D02*
X143129000Y-84709000D01*
G04 #@! TO.C,DB2*
X143891000Y-87376000D02*
X144653000Y-87376000D01*
X143891000Y-87630000D02*
X143891000Y-87376000D01*
X144653000Y-87630000D02*
X143891000Y-87630000D01*
X144653000Y-86233000D02*
X144653000Y-88773000D01*
X143891000Y-86233000D02*
X144653000Y-86233000D01*
X143891000Y-88773000D02*
X143891000Y-86233000D01*
X144653000Y-88773000D02*
X143891000Y-88773000D01*
G04 #@! TO.C,DB3*
X146431000Y-87376000D02*
X147193000Y-87376000D01*
X146431000Y-87630000D02*
X146431000Y-87376000D01*
X147193000Y-87630000D02*
X146431000Y-87630000D01*
X147193000Y-86233000D02*
X147193000Y-88773000D01*
X146431000Y-86233000D02*
X147193000Y-86233000D01*
X146431000Y-88773000D02*
X146431000Y-86233000D01*
X147193000Y-88773000D02*
X146431000Y-88773000D01*
G04 #@! TO.C,DB4*
X144780000Y-91948000D02*
X144018000Y-91948000D01*
X144018000Y-91948000D02*
X144018000Y-89408000D01*
X144018000Y-89408000D02*
X144780000Y-89408000D01*
X144780000Y-89408000D02*
X144780000Y-91948000D01*
X144780000Y-90805000D02*
X144018000Y-90805000D01*
X144018000Y-90805000D02*
X144018000Y-90551000D01*
X144018000Y-90551000D02*
X144780000Y-90551000D01*
G04 #@! TO.C,DB5*
X146558000Y-90440000D02*
X147320000Y-90440000D01*
X146558000Y-90694000D02*
X146558000Y-90440000D01*
X147320000Y-90694000D02*
X146558000Y-90694000D01*
X147320000Y-89297000D02*
X147320000Y-91837000D01*
X146558000Y-89297000D02*
X147320000Y-89297000D01*
X146558000Y-91837000D02*
X146558000Y-89297000D01*
X147320000Y-91837000D02*
X146558000Y-91837000D01*
G04 #@! TO.C,DB6*
X147320000Y-92456000D02*
X147320000Y-93726000D01*
X147320000Y-93726000D02*
X146558000Y-93726000D01*
X146558000Y-93726000D02*
X146558000Y-92456000D01*
X146558000Y-92456000D02*
X147320000Y-92456000D01*
G04 #@! TO.C,DB7*
X147447000Y-94488000D02*
X147447000Y-101600000D01*
X147447000Y-101600000D02*
X144018000Y-101600000D01*
X144018000Y-101600000D02*
X144018000Y-94234000D01*
X144018000Y-94234000D02*
X147447000Y-94234000D01*
X147447000Y-94234000D02*
X147447000Y-94488000D01*
G04 #@! TO.C,DB8*
X144780000Y-101981000D02*
X146050000Y-101981000D01*
X146050000Y-101981000D02*
X146050000Y-102743000D01*
X146050000Y-102743000D02*
X144780000Y-102743000D01*
X144780000Y-102743000D02*
X144780000Y-101981000D01*
G04 #@! TO.C,DC1*
X132730240Y-83789520D02*
X133492240Y-83789520D01*
X133492240Y-83789520D02*
X133492240Y-86329520D01*
X133492240Y-86329520D02*
X132730240Y-86329520D01*
X132730240Y-86329520D02*
X132730240Y-83789520D01*
X132730240Y-84932520D02*
X133492240Y-84932520D01*
X133492240Y-84932520D02*
X133492240Y-85186520D01*
X133492240Y-85186520D02*
X132730240Y-85186520D01*
G04 #@! TO.C,DC2*
X149860000Y-87884000D02*
X149098000Y-87884000D01*
X149098000Y-87884000D02*
X149098000Y-85344000D01*
X149098000Y-85344000D02*
X149860000Y-85344000D01*
X149860000Y-85344000D02*
X149860000Y-87884000D01*
X149860000Y-86741000D02*
X149098000Y-86741000D01*
X149098000Y-86741000D02*
X149098000Y-86487000D01*
X149098000Y-86487000D02*
X149860000Y-86487000D01*
G04 #@! TO.C,DC3*
X151765000Y-86360000D02*
X152527000Y-86360000D01*
X151765000Y-86614000D02*
X151765000Y-86360000D01*
X152527000Y-86614000D02*
X151765000Y-86614000D01*
X152527000Y-85217000D02*
X152527000Y-87757000D01*
X151765000Y-85217000D02*
X152527000Y-85217000D01*
X151765000Y-87757000D02*
X151765000Y-85217000D01*
X152527000Y-87757000D02*
X151765000Y-87757000D01*
G04 #@! TO.C,DC4*
X152527000Y-92075000D02*
X151765000Y-92075000D01*
X151765000Y-92075000D02*
X151765000Y-89535000D01*
X151765000Y-89535000D02*
X152527000Y-89535000D01*
X152527000Y-89535000D02*
X152527000Y-92075000D01*
X152527000Y-90932000D02*
X151765000Y-90932000D01*
X151765000Y-90932000D02*
X151765000Y-90678000D01*
X151765000Y-90678000D02*
X152527000Y-90678000D01*
G04 #@! TO.C,DC5*
X149860000Y-92075000D02*
X149098000Y-92075000D01*
X149098000Y-92075000D02*
X149098000Y-89535000D01*
X149098000Y-89535000D02*
X149860000Y-89535000D01*
X149860000Y-89535000D02*
X149860000Y-92075000D01*
X149860000Y-90932000D02*
X149098000Y-90932000D01*
X149098000Y-90932000D02*
X149098000Y-90678000D01*
X149098000Y-90678000D02*
X149860000Y-90678000D01*
G04 #@! TO.C,DC6*
X149987000Y-92964000D02*
X149987000Y-93726000D01*
X148717000Y-92964000D02*
X149987000Y-92964000D01*
X148717000Y-93726000D02*
X148717000Y-92964000D01*
X149987000Y-93726000D02*
X148717000Y-93726000D01*
G04 #@! TO.C,DC7*
X152781000Y-94107000D02*
X152781000Y-94361000D01*
X149352000Y-94107000D02*
X152781000Y-94107000D01*
X149352000Y-101473000D02*
X149352000Y-94107000D01*
X152781000Y-101473000D02*
X149352000Y-101473000D01*
X152781000Y-94361000D02*
X152781000Y-101473000D01*
G04 #@! TO.C,J1*
X136525000Y-96139000D02*
X136525000Y-104648000D01*
X136525000Y-104648000D02*
X132588000Y-104648000D01*
X132588000Y-104648000D02*
X132588000Y-96139000D01*
X132588000Y-96139000D02*
X136525000Y-96139000D01*
G04 #@! TO.C,R1*
X151765000Y-102870000D02*
X150495000Y-102870000D01*
X150495000Y-102870000D02*
X150495000Y-102108000D01*
X150495000Y-102108000D02*
X151765000Y-102108000D01*
X151765000Y-102108000D02*
X151765000Y-102870000D01*
G04 #@! TO.C,R2*
X146050000Y-104140000D02*
X144780000Y-104140000D01*
X144780000Y-104140000D02*
X144780000Y-103378000D01*
X144780000Y-103378000D02*
X146050000Y-103378000D01*
X146050000Y-103378000D02*
X146050000Y-104140000D01*
G04 #@! TO.C,R3*
X138453000Y-103251000D02*
X138453000Y-104013000D01*
X137183000Y-103251000D02*
X138453000Y-103251000D01*
X137183000Y-104013000D02*
X137183000Y-103251000D01*
X138453000Y-104013000D02*
X137183000Y-104013000D01*
G04 #@! TO.C,SW1*
X136652000Y-95631000D02*
X132715000Y-95631000D01*
X136652000Y-87122000D02*
X136652000Y-95631000D01*
X132715000Y-87122000D02*
X136652000Y-87122000D01*
X132715000Y-95631000D02*
X132715000Y-87122000D01*
G04 #@! TO.C,DA3*
X138247380Y-90574666D02*
X137247380Y-90574666D01*
X137247380Y-90336571D01*
X137295000Y-90193714D01*
X137390238Y-90098476D01*
X137485476Y-90050857D01*
X137675952Y-90003238D01*
X137818809Y-90003238D01*
X138009285Y-90050857D01*
X138104523Y-90098476D01*
X138199761Y-90193714D01*
X138247380Y-90336571D01*
X138247380Y-90574666D01*
X137961666Y-89622285D02*
X137961666Y-89146095D01*
X138247380Y-89717523D02*
X137247380Y-89384190D01*
X138247380Y-89050857D01*
X137247380Y-88812761D02*
X137247380Y-88193714D01*
X137628333Y-88527047D01*
X137628333Y-88384190D01*
X137675952Y-88288952D01*
X137723571Y-88241333D01*
X137818809Y-88193714D01*
X138056904Y-88193714D01*
X138152142Y-88241333D01*
X138199761Y-88288952D01*
X138247380Y-88384190D01*
X138247380Y-88669904D01*
X138199761Y-88765142D01*
X138152142Y-88812761D01*
G04 #@! TO.C,DA1*
X134977333Y-86812380D02*
X134977333Y-85812380D01*
X135215428Y-85812380D01*
X135358285Y-85860000D01*
X135453523Y-85955238D01*
X135501142Y-86050476D01*
X135548761Y-86240952D01*
X135548761Y-86383809D01*
X135501142Y-86574285D01*
X135453523Y-86669523D01*
X135358285Y-86764761D01*
X135215428Y-86812380D01*
X134977333Y-86812380D01*
X135929714Y-86526666D02*
X136405904Y-86526666D01*
X135834476Y-86812380D02*
X136167809Y-85812380D01*
X136501142Y-86812380D01*
X137358285Y-86812380D02*
X136786857Y-86812380D01*
X137072571Y-86812380D02*
X137072571Y-85812380D01*
X136977333Y-85955238D01*
X136882095Y-86050476D01*
X136786857Y-86098095D01*
G04 #@! TO.C,DA2*
X138660333Y-86304380D02*
X138660333Y-85304380D01*
X138898428Y-85304380D01*
X139041285Y-85352000D01*
X139136523Y-85447238D01*
X139184142Y-85542476D01*
X139231761Y-85732952D01*
X139231761Y-85875809D01*
X139184142Y-86066285D01*
X139136523Y-86161523D01*
X139041285Y-86256761D01*
X138898428Y-86304380D01*
X138660333Y-86304380D01*
X139612714Y-86018666D02*
X140088904Y-86018666D01*
X139517476Y-86304380D02*
X139850809Y-85304380D01*
X140184142Y-86304380D01*
X140469857Y-85399619D02*
X140517476Y-85352000D01*
X140612714Y-85304380D01*
X140850809Y-85304380D01*
X140946047Y-85352000D01*
X140993666Y-85399619D01*
X141041285Y-85494857D01*
X141041285Y-85590095D01*
X140993666Y-85732952D01*
X140422238Y-86304380D01*
X141041285Y-86304380D01*
G04 #@! TO.C,DA4*
X142184380Y-90955666D02*
X141184380Y-90955666D01*
X141184380Y-90717571D01*
X141232000Y-90574714D01*
X141327238Y-90479476D01*
X141422476Y-90431857D01*
X141612952Y-90384238D01*
X141755809Y-90384238D01*
X141946285Y-90431857D01*
X142041523Y-90479476D01*
X142136761Y-90574714D01*
X142184380Y-90717571D01*
X142184380Y-90955666D01*
X141898666Y-90003285D02*
X141898666Y-89527095D01*
X142184380Y-90098523D02*
X141184380Y-89765190D01*
X142184380Y-89431857D01*
X141517714Y-88669952D02*
X142184380Y-88669952D01*
X141136761Y-88908047D02*
X141851047Y-89146142D01*
X141851047Y-88527095D01*
G04 #@! TO.C,DA5*
X138247380Y-93749666D02*
X137247380Y-93749666D01*
X137247380Y-93511571D01*
X137295000Y-93368714D01*
X137390238Y-93273476D01*
X137485476Y-93225857D01*
X137675952Y-93178238D01*
X137818809Y-93178238D01*
X138009285Y-93225857D01*
X138104523Y-93273476D01*
X138199761Y-93368714D01*
X138247380Y-93511571D01*
X138247380Y-93749666D01*
X137961666Y-92797285D02*
X137961666Y-92321095D01*
X138247380Y-92892523D02*
X137247380Y-92559190D01*
X138247380Y-92225857D01*
X137247380Y-91416333D02*
X137247380Y-91892523D01*
X137723571Y-91940142D01*
X137675952Y-91892523D01*
X137628333Y-91797285D01*
X137628333Y-91559190D01*
X137675952Y-91463952D01*
X137723571Y-91416333D01*
X137818809Y-91368714D01*
X138056904Y-91368714D01*
X138152142Y-91416333D01*
X138199761Y-91463952D01*
X138247380Y-91559190D01*
X138247380Y-91797285D01*
X138199761Y-91892523D01*
X138152142Y-91940142D01*
G04 #@! TO.C,DA6*
X142311380Y-93876666D02*
X141311380Y-93876666D01*
X141311380Y-93638571D01*
X141359000Y-93495714D01*
X141454238Y-93400476D01*
X141549476Y-93352857D01*
X141739952Y-93305238D01*
X141882809Y-93305238D01*
X142073285Y-93352857D01*
X142168523Y-93400476D01*
X142263761Y-93495714D01*
X142311380Y-93638571D01*
X142311380Y-93876666D01*
X142025666Y-92924285D02*
X142025666Y-92448095D01*
X142311380Y-93019523D02*
X141311380Y-92686190D01*
X142311380Y-92352857D01*
X141311380Y-91590952D02*
X141311380Y-91781428D01*
X141359000Y-91876666D01*
X141406619Y-91924285D01*
X141549476Y-92019523D01*
X141739952Y-92067142D01*
X142120904Y-92067142D01*
X142216142Y-92019523D01*
X142263761Y-91971904D01*
X142311380Y-91876666D01*
X142311380Y-91686190D01*
X142263761Y-91590952D01*
X142216142Y-91543333D01*
X142120904Y-91495714D01*
X141882809Y-91495714D01*
X141787571Y-91543333D01*
X141739952Y-91590952D01*
X141692333Y-91686190D01*
X141692333Y-91876666D01*
X141739952Y-91971904D01*
X141787571Y-92019523D01*
X141882809Y-92067142D01*
G04 #@! TO.C,DA7*
X138866073Y-98496380D02*
X138866073Y-97496380D01*
X139104168Y-97496380D01*
X139247025Y-97544000D01*
X139342263Y-97639238D01*
X139389882Y-97734476D01*
X139437501Y-97924952D01*
X139437501Y-98067809D01*
X139389882Y-98258285D01*
X139342263Y-98353523D01*
X139247025Y-98448761D01*
X139104168Y-98496380D01*
X138866073Y-98496380D01*
X139818454Y-98210666D02*
X140294644Y-98210666D01*
X139723216Y-98496380D02*
X140056549Y-97496380D01*
X140389882Y-98496380D01*
X140627978Y-97496380D02*
X141294644Y-97496380D01*
X140866073Y-98496380D01*
G04 #@! TO.C,DA8*
X137866380Y-101369666D02*
X136866380Y-101369666D01*
X136866380Y-101131571D01*
X136914000Y-100988714D01*
X137009238Y-100893476D01*
X137104476Y-100845857D01*
X137294952Y-100798238D01*
X137437809Y-100798238D01*
X137628285Y-100845857D01*
X137723523Y-100893476D01*
X137818761Y-100988714D01*
X137866380Y-101131571D01*
X137866380Y-101369666D01*
X137580666Y-100417285D02*
X137580666Y-99941095D01*
X137866380Y-100512523D02*
X136866380Y-100179190D01*
X137866380Y-99845857D01*
X137294952Y-99369666D02*
X137247333Y-99464904D01*
X137199714Y-99512523D01*
X137104476Y-99560142D01*
X137056857Y-99560142D01*
X136961619Y-99512523D01*
X136914000Y-99464904D01*
X136866380Y-99369666D01*
X136866380Y-99179190D01*
X136914000Y-99083952D01*
X136961619Y-99036333D01*
X137056857Y-98988714D01*
X137104476Y-98988714D01*
X137199714Y-99036333D01*
X137247333Y-99083952D01*
X137294952Y-99179190D01*
X137294952Y-99369666D01*
X137342571Y-99464904D01*
X137390190Y-99512523D01*
X137485428Y-99560142D01*
X137675904Y-99560142D01*
X137771142Y-99512523D01*
X137818761Y-99464904D01*
X137866380Y-99369666D01*
X137866380Y-99179190D01*
X137818761Y-99083952D01*
X137771142Y-99036333D01*
X137675904Y-98988714D01*
X137485428Y-98988714D01*
X137390190Y-99036333D01*
X137342571Y-99083952D01*
X137294952Y-99179190D01*
G04 #@! TO.C,DA9*
X141194333Y-102941380D02*
X141194333Y-101941380D01*
X141432428Y-101941380D01*
X141575285Y-101989000D01*
X141670523Y-102084238D01*
X141718142Y-102179476D01*
X141765761Y-102369952D01*
X141765761Y-102512809D01*
X141718142Y-102703285D01*
X141670523Y-102798523D01*
X141575285Y-102893761D01*
X141432428Y-102941380D01*
X141194333Y-102941380D01*
X142146714Y-102655666D02*
X142622904Y-102655666D01*
X142051476Y-102941380D02*
X142384809Y-101941380D01*
X142718142Y-102941380D01*
X143099095Y-102941380D02*
X143289571Y-102941380D01*
X143384809Y-102893761D01*
X143432428Y-102846142D01*
X143527666Y-102703285D01*
X143575285Y-102512809D01*
X143575285Y-102131857D01*
X143527666Y-102036619D01*
X143480047Y-101989000D01*
X143384809Y-101941380D01*
X143194333Y-101941380D01*
X143099095Y-101989000D01*
X143051476Y-102036619D01*
X143003857Y-102131857D01*
X143003857Y-102369952D01*
X143051476Y-102465190D01*
X143099095Y-102512809D01*
X143194333Y-102560428D01*
X143384809Y-102560428D01*
X143480047Y-102512809D01*
X143527666Y-102465190D01*
X143575285Y-102369952D01*
G04 #@! TO.C,DA10*
X141105142Y-104465380D02*
X141105142Y-103465380D01*
X141343238Y-103465380D01*
X141486095Y-103513000D01*
X141581333Y-103608238D01*
X141628952Y-103703476D01*
X141676571Y-103893952D01*
X141676571Y-104036809D01*
X141628952Y-104227285D01*
X141581333Y-104322523D01*
X141486095Y-104417761D01*
X141343238Y-104465380D01*
X141105142Y-104465380D01*
X142057523Y-104179666D02*
X142533714Y-104179666D01*
X141962285Y-104465380D02*
X142295619Y-103465380D01*
X142628952Y-104465380D01*
X143486095Y-104465380D02*
X142914666Y-104465380D01*
X143200380Y-104465380D02*
X143200380Y-103465380D01*
X143105142Y-103608238D01*
X143009904Y-103703476D01*
X142914666Y-103751095D01*
X144105142Y-103465380D02*
X144200380Y-103465380D01*
X144295619Y-103513000D01*
X144343238Y-103560619D01*
X144390857Y-103655857D01*
X144438476Y-103846333D01*
X144438476Y-104084428D01*
X144390857Y-104274904D01*
X144343238Y-104370142D01*
X144295619Y-104417761D01*
X144200380Y-104465380D01*
X144105142Y-104465380D01*
X144009904Y-104417761D01*
X143962285Y-104370142D01*
X143914666Y-104274904D01*
X143867047Y-104084428D01*
X143867047Y-103846333D01*
X143914666Y-103655857D01*
X143962285Y-103560619D01*
X144009904Y-103513000D01*
X144105142Y-103465380D01*
G04 #@! TO.C,DB1*
X144938904Y-85542380D02*
X144938904Y-84542380D01*
X145177000Y-84542380D01*
X145319857Y-84590000D01*
X145415095Y-84685238D01*
X145462714Y-84780476D01*
X145510333Y-84970952D01*
X145510333Y-85113809D01*
X145462714Y-85304285D01*
X145415095Y-85399523D01*
X145319857Y-85494761D01*
X145177000Y-85542380D01*
X144938904Y-85542380D01*
X146272238Y-85018571D02*
X146415095Y-85066190D01*
X146462714Y-85113809D01*
X146510333Y-85209047D01*
X146510333Y-85351904D01*
X146462714Y-85447142D01*
X146415095Y-85494761D01*
X146319857Y-85542380D01*
X145938904Y-85542380D01*
X145938904Y-84542380D01*
X146272238Y-84542380D01*
X146367476Y-84590000D01*
X146415095Y-84637619D01*
X146462714Y-84732857D01*
X146462714Y-84828095D01*
X146415095Y-84923333D01*
X146367476Y-84970952D01*
X146272238Y-85018571D01*
X145938904Y-85018571D01*
X147462714Y-85542380D02*
X146891285Y-85542380D01*
X147177000Y-85542380D02*
X147177000Y-84542380D01*
X147081761Y-84685238D01*
X146986523Y-84780476D01*
X146891285Y-84828095D01*
G04 #@! TO.C,DB2*
X143327380Y-88741095D02*
X142327380Y-88741095D01*
X142327380Y-88503000D01*
X142375000Y-88360142D01*
X142470238Y-88264904D01*
X142565476Y-88217285D01*
X142755952Y-88169666D01*
X142898809Y-88169666D01*
X143089285Y-88217285D01*
X143184523Y-88264904D01*
X143279761Y-88360142D01*
X143327380Y-88503000D01*
X143327380Y-88741095D01*
X142803571Y-87407761D02*
X142851190Y-87264904D01*
X142898809Y-87217285D01*
X142994047Y-87169666D01*
X143136904Y-87169666D01*
X143232142Y-87217285D01*
X143279761Y-87264904D01*
X143327380Y-87360142D01*
X143327380Y-87741095D01*
X142327380Y-87741095D01*
X142327380Y-87407761D01*
X142375000Y-87312523D01*
X142422619Y-87264904D01*
X142517857Y-87217285D01*
X142613095Y-87217285D01*
X142708333Y-87264904D01*
X142755952Y-87312523D01*
X142803571Y-87407761D01*
X142803571Y-87741095D01*
X142422619Y-86788714D02*
X142375000Y-86741095D01*
X142327380Y-86645857D01*
X142327380Y-86407761D01*
X142375000Y-86312523D01*
X142422619Y-86264904D01*
X142517857Y-86217285D01*
X142613095Y-86217285D01*
X142755952Y-86264904D01*
X143327380Y-86836333D01*
X143327380Y-86217285D01*
G04 #@! TO.C,DB3*
X148534380Y-87979095D02*
X147534380Y-87979095D01*
X147534380Y-87741000D01*
X147582000Y-87598142D01*
X147677238Y-87502904D01*
X147772476Y-87455285D01*
X147962952Y-87407666D01*
X148105809Y-87407666D01*
X148296285Y-87455285D01*
X148391523Y-87502904D01*
X148486761Y-87598142D01*
X148534380Y-87741000D01*
X148534380Y-87979095D01*
X148010571Y-86645761D02*
X148058190Y-86502904D01*
X148105809Y-86455285D01*
X148201047Y-86407666D01*
X148343904Y-86407666D01*
X148439142Y-86455285D01*
X148486761Y-86502904D01*
X148534380Y-86598142D01*
X148534380Y-86979095D01*
X147534380Y-86979095D01*
X147534380Y-86645761D01*
X147582000Y-86550523D01*
X147629619Y-86502904D01*
X147724857Y-86455285D01*
X147820095Y-86455285D01*
X147915333Y-86502904D01*
X147962952Y-86550523D01*
X148010571Y-86645761D01*
X148010571Y-86979095D01*
X147534380Y-86074333D02*
X147534380Y-85455285D01*
X147915333Y-85788619D01*
X147915333Y-85645761D01*
X147962952Y-85550523D01*
X148010571Y-85502904D01*
X148105809Y-85455285D01*
X148343904Y-85455285D01*
X148439142Y-85502904D01*
X148486761Y-85550523D01*
X148534380Y-85645761D01*
X148534380Y-85931476D01*
X148486761Y-86026714D01*
X148439142Y-86074333D01*
G04 #@! TO.C,DB4*
X143454380Y-91916095D02*
X142454380Y-91916095D01*
X142454380Y-91678000D01*
X142502000Y-91535142D01*
X142597238Y-91439904D01*
X142692476Y-91392285D01*
X142882952Y-91344666D01*
X143025809Y-91344666D01*
X143216285Y-91392285D01*
X143311523Y-91439904D01*
X143406761Y-91535142D01*
X143454380Y-91678000D01*
X143454380Y-91916095D01*
X142930571Y-90582761D02*
X142978190Y-90439904D01*
X143025809Y-90392285D01*
X143121047Y-90344666D01*
X143263904Y-90344666D01*
X143359142Y-90392285D01*
X143406761Y-90439904D01*
X143454380Y-90535142D01*
X143454380Y-90916095D01*
X142454380Y-90916095D01*
X142454380Y-90582761D01*
X142502000Y-90487523D01*
X142549619Y-90439904D01*
X142644857Y-90392285D01*
X142740095Y-90392285D01*
X142835333Y-90439904D01*
X142882952Y-90487523D01*
X142930571Y-90582761D01*
X142930571Y-90916095D01*
X142787714Y-89487523D02*
X143454380Y-89487523D01*
X142406761Y-89725619D02*
X143121047Y-89963714D01*
X143121047Y-89344666D01*
G04 #@! TO.C,DB5*
X148661380Y-91916095D02*
X147661380Y-91916095D01*
X147661380Y-91678000D01*
X147709000Y-91535142D01*
X147804238Y-91439904D01*
X147899476Y-91392285D01*
X148089952Y-91344666D01*
X148232809Y-91344666D01*
X148423285Y-91392285D01*
X148518523Y-91439904D01*
X148613761Y-91535142D01*
X148661380Y-91678000D01*
X148661380Y-91916095D01*
X148137571Y-90582761D02*
X148185190Y-90439904D01*
X148232809Y-90392285D01*
X148328047Y-90344666D01*
X148470904Y-90344666D01*
X148566142Y-90392285D01*
X148613761Y-90439904D01*
X148661380Y-90535142D01*
X148661380Y-90916095D01*
X147661380Y-90916095D01*
X147661380Y-90582761D01*
X147709000Y-90487523D01*
X147756619Y-90439904D01*
X147851857Y-90392285D01*
X147947095Y-90392285D01*
X148042333Y-90439904D01*
X148089952Y-90487523D01*
X148137571Y-90582761D01*
X148137571Y-90916095D01*
X147661380Y-89439904D02*
X147661380Y-89916095D01*
X148137571Y-89963714D01*
X148089952Y-89916095D01*
X148042333Y-89820857D01*
X148042333Y-89582761D01*
X148089952Y-89487523D01*
X148137571Y-89439904D01*
X148232809Y-89392285D01*
X148470904Y-89392285D01*
X148566142Y-89439904D01*
X148613761Y-89487523D01*
X148661380Y-89582761D01*
X148661380Y-89820857D01*
X148613761Y-89916095D01*
X148566142Y-89963714D01*
G04 #@! TO.C,DB6*
X143668904Y-93670380D02*
X143668904Y-92670380D01*
X143907000Y-92670380D01*
X144049857Y-92718000D01*
X144145095Y-92813238D01*
X144192714Y-92908476D01*
X144240333Y-93098952D01*
X144240333Y-93241809D01*
X144192714Y-93432285D01*
X144145095Y-93527523D01*
X144049857Y-93622761D01*
X143907000Y-93670380D01*
X143668904Y-93670380D01*
X145002238Y-93146571D02*
X145145095Y-93194190D01*
X145192714Y-93241809D01*
X145240333Y-93337047D01*
X145240333Y-93479904D01*
X145192714Y-93575142D01*
X145145095Y-93622761D01*
X145049857Y-93670380D01*
X144668904Y-93670380D01*
X144668904Y-92670380D01*
X145002238Y-92670380D01*
X145097476Y-92718000D01*
X145145095Y-92765619D01*
X145192714Y-92860857D01*
X145192714Y-92956095D01*
X145145095Y-93051333D01*
X145097476Y-93098952D01*
X145002238Y-93146571D01*
X144668904Y-93146571D01*
X146097476Y-92670380D02*
X145907000Y-92670380D01*
X145811761Y-92718000D01*
X145764142Y-92765619D01*
X145668904Y-92908476D01*
X145621285Y-93098952D01*
X145621285Y-93479904D01*
X145668904Y-93575142D01*
X145716523Y-93622761D01*
X145811761Y-93670380D01*
X146002238Y-93670380D01*
X146097476Y-93622761D01*
X146145095Y-93575142D01*
X146192714Y-93479904D01*
X146192714Y-93241809D01*
X146145095Y-93146571D01*
X146097476Y-93098952D01*
X146002238Y-93051333D01*
X145811761Y-93051333D01*
X145716523Y-93098952D01*
X145668904Y-93146571D01*
X145621285Y-93241809D01*
G04 #@! TO.C,DB7*
X144684904Y-98623380D02*
X144684904Y-97623380D01*
X144923000Y-97623380D01*
X145065857Y-97671000D01*
X145161095Y-97766238D01*
X145208714Y-97861476D01*
X145256333Y-98051952D01*
X145256333Y-98194809D01*
X145208714Y-98385285D01*
X145161095Y-98480523D01*
X145065857Y-98575761D01*
X144923000Y-98623380D01*
X144684904Y-98623380D01*
X146018238Y-98099571D02*
X146161095Y-98147190D01*
X146208714Y-98194809D01*
X146256333Y-98290047D01*
X146256333Y-98432904D01*
X146208714Y-98528142D01*
X146161095Y-98575761D01*
X146065857Y-98623380D01*
X145684904Y-98623380D01*
X145684904Y-97623380D01*
X146018238Y-97623380D01*
X146113476Y-97671000D01*
X146161095Y-97718619D01*
X146208714Y-97813857D01*
X146208714Y-97909095D01*
X146161095Y-98004333D01*
X146113476Y-98051952D01*
X146018238Y-98099571D01*
X145684904Y-98099571D01*
X146589666Y-97623380D02*
X147256333Y-97623380D01*
X146827761Y-98623380D01*
G04 #@! TO.C,DB8*
X146462904Y-102941380D02*
X146462904Y-101941380D01*
X146701000Y-101941380D01*
X146843857Y-101989000D01*
X146939095Y-102084238D01*
X146986714Y-102179476D01*
X147034333Y-102369952D01*
X147034333Y-102512809D01*
X146986714Y-102703285D01*
X146939095Y-102798523D01*
X146843857Y-102893761D01*
X146701000Y-102941380D01*
X146462904Y-102941380D01*
X147796238Y-102417571D02*
X147939095Y-102465190D01*
X147986714Y-102512809D01*
X148034333Y-102608047D01*
X148034333Y-102750904D01*
X147986714Y-102846142D01*
X147939095Y-102893761D01*
X147843857Y-102941380D01*
X147462904Y-102941380D01*
X147462904Y-101941380D01*
X147796238Y-101941380D01*
X147891476Y-101989000D01*
X147939095Y-102036619D01*
X147986714Y-102131857D01*
X147986714Y-102227095D01*
X147939095Y-102322333D01*
X147891476Y-102369952D01*
X147796238Y-102417571D01*
X147462904Y-102417571D01*
X148605761Y-102369952D02*
X148510523Y-102322333D01*
X148462904Y-102274714D01*
X148415285Y-102179476D01*
X148415285Y-102131857D01*
X148462904Y-102036619D01*
X148510523Y-101989000D01*
X148605761Y-101941380D01*
X148796238Y-101941380D01*
X148891476Y-101989000D01*
X148939095Y-102036619D01*
X148986714Y-102131857D01*
X148986714Y-102179476D01*
X148939095Y-102274714D01*
X148891476Y-102322333D01*
X148796238Y-102369952D01*
X148605761Y-102369952D01*
X148510523Y-102417571D01*
X148462904Y-102465190D01*
X148415285Y-102560428D01*
X148415285Y-102750904D01*
X148462904Y-102846142D01*
X148510523Y-102893761D01*
X148605761Y-102941380D01*
X148796238Y-102941380D01*
X148891476Y-102893761D01*
X148939095Y-102846142D01*
X148986714Y-102750904D01*
X148986714Y-102560428D01*
X148939095Y-102465190D01*
X148891476Y-102417571D01*
X148796238Y-102369952D01*
G04 #@! TO.C,DC1*
X131984904Y-83256380D02*
X131984904Y-82256380D01*
X132223000Y-82256380D01*
X132365857Y-82304000D01*
X132461095Y-82399238D01*
X132508714Y-82494476D01*
X132556333Y-82684952D01*
X132556333Y-82827809D01*
X132508714Y-83018285D01*
X132461095Y-83113523D01*
X132365857Y-83208761D01*
X132223000Y-83256380D01*
X131984904Y-83256380D01*
X133556333Y-83161142D02*
X133508714Y-83208761D01*
X133365857Y-83256380D01*
X133270619Y-83256380D01*
X133127761Y-83208761D01*
X133032523Y-83113523D01*
X132984904Y-83018285D01*
X132937285Y-82827809D01*
X132937285Y-82684952D01*
X132984904Y-82494476D01*
X133032523Y-82399238D01*
X133127761Y-82304000D01*
X133270619Y-82256380D01*
X133365857Y-82256380D01*
X133508714Y-82304000D01*
X133556333Y-82351619D01*
X134508714Y-83256380D02*
X133937285Y-83256380D01*
X134223000Y-83256380D02*
X134223000Y-82256380D01*
X134127761Y-82399238D01*
X134032523Y-82494476D01*
X133937285Y-82542095D01*
G04 #@! TO.C,DC2*
X147986904Y-84780380D02*
X147986904Y-83780380D01*
X148225000Y-83780380D01*
X148367857Y-83828000D01*
X148463095Y-83923238D01*
X148510714Y-84018476D01*
X148558333Y-84208952D01*
X148558333Y-84351809D01*
X148510714Y-84542285D01*
X148463095Y-84637523D01*
X148367857Y-84732761D01*
X148225000Y-84780380D01*
X147986904Y-84780380D01*
X149558333Y-84685142D02*
X149510714Y-84732761D01*
X149367857Y-84780380D01*
X149272619Y-84780380D01*
X149129761Y-84732761D01*
X149034523Y-84637523D01*
X148986904Y-84542285D01*
X148939285Y-84351809D01*
X148939285Y-84208952D01*
X148986904Y-84018476D01*
X149034523Y-83923238D01*
X149129761Y-83828000D01*
X149272619Y-83780380D01*
X149367857Y-83780380D01*
X149510714Y-83828000D01*
X149558333Y-83875619D01*
X149939285Y-83875619D02*
X149986904Y-83828000D01*
X150082142Y-83780380D01*
X150320238Y-83780380D01*
X150415476Y-83828000D01*
X150463095Y-83875619D01*
X150510714Y-83970857D01*
X150510714Y-84066095D01*
X150463095Y-84208952D01*
X149891666Y-84780380D01*
X150510714Y-84780380D01*
G04 #@! TO.C,DC3*
X150907904Y-84780380D02*
X150907904Y-83780380D01*
X151146000Y-83780380D01*
X151288857Y-83828000D01*
X151384095Y-83923238D01*
X151431714Y-84018476D01*
X151479333Y-84208952D01*
X151479333Y-84351809D01*
X151431714Y-84542285D01*
X151384095Y-84637523D01*
X151288857Y-84732761D01*
X151146000Y-84780380D01*
X150907904Y-84780380D01*
X152479333Y-84685142D02*
X152431714Y-84732761D01*
X152288857Y-84780380D01*
X152193619Y-84780380D01*
X152050761Y-84732761D01*
X151955523Y-84637523D01*
X151907904Y-84542285D01*
X151860285Y-84351809D01*
X151860285Y-84208952D01*
X151907904Y-84018476D01*
X151955523Y-83923238D01*
X152050761Y-83828000D01*
X152193619Y-83780380D01*
X152288857Y-83780380D01*
X152431714Y-83828000D01*
X152479333Y-83875619D01*
X152812666Y-83780380D02*
X153431714Y-83780380D01*
X153098380Y-84161333D01*
X153241238Y-84161333D01*
X153336476Y-84208952D01*
X153384095Y-84256571D01*
X153431714Y-84351809D01*
X153431714Y-84589904D01*
X153384095Y-84685142D01*
X153336476Y-84732761D01*
X153241238Y-84780380D01*
X152955523Y-84780380D01*
X152860285Y-84732761D01*
X152812666Y-84685142D01*
G04 #@! TO.C,DC4*
X150907904Y-89225380D02*
X150907904Y-88225380D01*
X151146000Y-88225380D01*
X151288857Y-88273000D01*
X151384095Y-88368238D01*
X151431714Y-88463476D01*
X151479333Y-88653952D01*
X151479333Y-88796809D01*
X151431714Y-88987285D01*
X151384095Y-89082523D01*
X151288857Y-89177761D01*
X151146000Y-89225380D01*
X150907904Y-89225380D01*
X152479333Y-89130142D02*
X152431714Y-89177761D01*
X152288857Y-89225380D01*
X152193619Y-89225380D01*
X152050761Y-89177761D01*
X151955523Y-89082523D01*
X151907904Y-88987285D01*
X151860285Y-88796809D01*
X151860285Y-88653952D01*
X151907904Y-88463476D01*
X151955523Y-88368238D01*
X152050761Y-88273000D01*
X152193619Y-88225380D01*
X152288857Y-88225380D01*
X152431714Y-88273000D01*
X152479333Y-88320619D01*
X153336476Y-88558714D02*
X153336476Y-89225380D01*
X153098380Y-88177761D02*
X152860285Y-88892047D01*
X153479333Y-88892047D01*
G04 #@! TO.C,DC5*
X148113904Y-89225380D02*
X148113904Y-88225380D01*
X148352000Y-88225380D01*
X148494857Y-88273000D01*
X148590095Y-88368238D01*
X148637714Y-88463476D01*
X148685333Y-88653952D01*
X148685333Y-88796809D01*
X148637714Y-88987285D01*
X148590095Y-89082523D01*
X148494857Y-89177761D01*
X148352000Y-89225380D01*
X148113904Y-89225380D01*
X149685333Y-89130142D02*
X149637714Y-89177761D01*
X149494857Y-89225380D01*
X149399619Y-89225380D01*
X149256761Y-89177761D01*
X149161523Y-89082523D01*
X149113904Y-88987285D01*
X149066285Y-88796809D01*
X149066285Y-88653952D01*
X149113904Y-88463476D01*
X149161523Y-88368238D01*
X149256761Y-88273000D01*
X149399619Y-88225380D01*
X149494857Y-88225380D01*
X149637714Y-88273000D01*
X149685333Y-88320619D01*
X150590095Y-88225380D02*
X150113904Y-88225380D01*
X150066285Y-88701571D01*
X150113904Y-88653952D01*
X150209142Y-88606333D01*
X150447238Y-88606333D01*
X150542476Y-88653952D01*
X150590095Y-88701571D01*
X150637714Y-88796809D01*
X150637714Y-89034904D01*
X150590095Y-89130142D01*
X150542476Y-89177761D01*
X150447238Y-89225380D01*
X150209142Y-89225380D01*
X150113904Y-89177761D01*
X150066285Y-89130142D01*
G04 #@! TO.C,DC6*
X150526904Y-93670380D02*
X150526904Y-92670380D01*
X150765000Y-92670380D01*
X150907857Y-92718000D01*
X151003095Y-92813238D01*
X151050714Y-92908476D01*
X151098333Y-93098952D01*
X151098333Y-93241809D01*
X151050714Y-93432285D01*
X151003095Y-93527523D01*
X150907857Y-93622761D01*
X150765000Y-93670380D01*
X150526904Y-93670380D01*
X152098333Y-93575142D02*
X152050714Y-93622761D01*
X151907857Y-93670380D01*
X151812619Y-93670380D01*
X151669761Y-93622761D01*
X151574523Y-93527523D01*
X151526904Y-93432285D01*
X151479285Y-93241809D01*
X151479285Y-93098952D01*
X151526904Y-92908476D01*
X151574523Y-92813238D01*
X151669761Y-92718000D01*
X151812619Y-92670380D01*
X151907857Y-92670380D01*
X152050714Y-92718000D01*
X152098333Y-92765619D01*
X152955476Y-92670380D02*
X152765000Y-92670380D01*
X152669761Y-92718000D01*
X152622142Y-92765619D01*
X152526904Y-92908476D01*
X152479285Y-93098952D01*
X152479285Y-93479904D01*
X152526904Y-93575142D01*
X152574523Y-93622761D01*
X152669761Y-93670380D01*
X152860238Y-93670380D01*
X152955476Y-93622761D01*
X153003095Y-93575142D01*
X153050714Y-93479904D01*
X153050714Y-93241809D01*
X153003095Y-93146571D01*
X152955476Y-93098952D01*
X152860238Y-93051333D01*
X152669761Y-93051333D01*
X152574523Y-93098952D01*
X152526904Y-93146571D01*
X152479285Y-93241809D01*
G04 #@! TO.C,DC7*
X149701404Y-98460820D02*
X149701404Y-97460820D01*
X149939500Y-97460820D01*
X150082357Y-97508440D01*
X150177595Y-97603678D01*
X150225214Y-97698916D01*
X150272833Y-97889392D01*
X150272833Y-98032249D01*
X150225214Y-98222725D01*
X150177595Y-98317963D01*
X150082357Y-98413201D01*
X149939500Y-98460820D01*
X149701404Y-98460820D01*
X151272833Y-98365582D02*
X151225214Y-98413201D01*
X151082357Y-98460820D01*
X150987119Y-98460820D01*
X150844261Y-98413201D01*
X150749023Y-98317963D01*
X150701404Y-98222725D01*
X150653785Y-98032249D01*
X150653785Y-97889392D01*
X150701404Y-97698916D01*
X150749023Y-97603678D01*
X150844261Y-97508440D01*
X150987119Y-97460820D01*
X151082357Y-97460820D01*
X151225214Y-97508440D01*
X151272833Y-97556059D01*
X151606166Y-97460820D02*
X152272833Y-97460820D01*
X151844261Y-98460820D01*
G04 #@! TO.C,J1*
X134159666Y-99909380D02*
X134159666Y-100623666D01*
X134112047Y-100766523D01*
X134016809Y-100861761D01*
X133873952Y-100909380D01*
X133778714Y-100909380D01*
X135159666Y-100909380D02*
X134588238Y-100909380D01*
X134873952Y-100909380D02*
X134873952Y-99909380D01*
X134778714Y-100052238D01*
X134683476Y-100147476D01*
X134588238Y-100195095D01*
G04 #@! TO.C,R1*
X151067333Y-104211380D02*
X150734000Y-103735190D01*
X150495904Y-104211380D02*
X150495904Y-103211380D01*
X150876857Y-103211380D01*
X150972095Y-103259000D01*
X151019714Y-103306619D01*
X151067333Y-103401857D01*
X151067333Y-103544714D01*
X151019714Y-103639952D01*
X150972095Y-103687571D01*
X150876857Y-103735190D01*
X150495904Y-103735190D01*
X152019714Y-104211380D02*
X151448285Y-104211380D01*
X151734000Y-104211380D02*
X151734000Y-103211380D01*
X151638761Y-103354238D01*
X151543523Y-103449476D01*
X151448285Y-103497095D01*
G04 #@! TO.C,R2*
X147026333Y-104465380D02*
X146693000Y-103989190D01*
X146454904Y-104465380D02*
X146454904Y-103465380D01*
X146835857Y-103465380D01*
X146931095Y-103513000D01*
X146978714Y-103560619D01*
X147026333Y-103655857D01*
X147026333Y-103798714D01*
X146978714Y-103893952D01*
X146931095Y-103941571D01*
X146835857Y-103989190D01*
X146454904Y-103989190D01*
X147407285Y-103560619D02*
X147454904Y-103513000D01*
X147550142Y-103465380D01*
X147788238Y-103465380D01*
X147883476Y-103513000D01*
X147931095Y-103560619D01*
X147978714Y-103655857D01*
X147978714Y-103751095D01*
X147931095Y-103893952D01*
X147359666Y-104465380D01*
X147978714Y-104465380D01*
G04 #@! TO.C,R3*
X136485333Y-105608380D02*
X136152000Y-105132190D01*
X135913904Y-105608380D02*
X135913904Y-104608380D01*
X136294857Y-104608380D01*
X136390095Y-104656000D01*
X136437714Y-104703619D01*
X136485333Y-104798857D01*
X136485333Y-104941714D01*
X136437714Y-105036952D01*
X136390095Y-105084571D01*
X136294857Y-105132190D01*
X135913904Y-105132190D01*
X136818666Y-104608380D02*
X137437714Y-104608380D01*
X137104380Y-104989333D01*
X137247238Y-104989333D01*
X137342476Y-105036952D01*
X137390095Y-105084571D01*
X137437714Y-105179809D01*
X137437714Y-105417904D01*
X137390095Y-105513142D01*
X137342476Y-105560761D01*
X137247238Y-105608380D01*
X136961523Y-105608380D01*
X136866285Y-105560761D01*
X136818666Y-105513142D01*
G04 #@! TO.C,SW1*
X133540666Y-91971761D02*
X133683523Y-92019380D01*
X133921619Y-92019380D01*
X134016857Y-91971761D01*
X134064476Y-91924142D01*
X134112095Y-91828904D01*
X134112095Y-91733666D01*
X134064476Y-91638428D01*
X134016857Y-91590809D01*
X133921619Y-91543190D01*
X133731142Y-91495571D01*
X133635904Y-91447952D01*
X133588285Y-91400333D01*
X133540666Y-91305095D01*
X133540666Y-91209857D01*
X133588285Y-91114619D01*
X133635904Y-91067000D01*
X133731142Y-91019380D01*
X133969238Y-91019380D01*
X134112095Y-91067000D01*
X134445428Y-91019380D02*
X134683523Y-92019380D01*
X134874000Y-91305095D01*
X135064476Y-92019380D01*
X135302571Y-91019380D01*
X136207333Y-92019380D02*
X135635904Y-92019380D01*
X135921619Y-92019380D02*
X135921619Y-91019380D01*
X135826380Y-91162238D01*
X135731142Y-91257476D01*
X135635904Y-91305095D01*
G04 #@! TD*
%LPC*%
D11*
G04 #@! TO.C,DA3*
X138811000Y-90281000D03*
X138811000Y-88281000D03*
G04 #@! TD*
D12*
G04 #@! TO.C,DA1*
X135017000Y-85090000D03*
X137017000Y-85090000D03*
G04 #@! TD*
G04 #@! TO.C,DA2*
X140827000Y-86995000D03*
X138827000Y-86995000D03*
G04 #@! TD*
D11*
G04 #@! TO.C,DA4*
X140589000Y-89170000D03*
X140589000Y-91170000D03*
G04 #@! TD*
G04 #@! TO.C,DA5*
X138811000Y-91329000D03*
X138811000Y-93329000D03*
G04 #@! TD*
D13*
G04 #@! TO.C,DA6*
X140589000Y-92589000D03*
X140589000Y-93339000D03*
G04 #@! TD*
D14*
G04 #@! TO.C,DA7*
X139954000Y-99917000D03*
D15*
X139954000Y-95917000D03*
G04 #@! TD*
D16*
G04 #@! TO.C,DA8*
X138164000Y-102235000D03*
X137414000Y-102235000D03*
G04 #@! TD*
G04 #@! TO.C,DA9*
X139827000Y-102489000D03*
X140577000Y-102489000D03*
G04 #@! TD*
G04 #@! TO.C,DA10*
X139833000Y-104013000D03*
X140583000Y-104013000D03*
G04 #@! TD*
D12*
G04 #@! TO.C,DB1*
X144256000Y-85090000D03*
X142256000Y-85090000D03*
G04 #@! TD*
D11*
G04 #@! TO.C,DB2*
X144272000Y-86503000D03*
X144272000Y-88503000D03*
G04 #@! TD*
G04 #@! TO.C,DB3*
X146812000Y-86503000D03*
X146812000Y-88503000D03*
G04 #@! TD*
G04 #@! TO.C,DB4*
X144399000Y-91678000D03*
X144399000Y-89678000D03*
G04 #@! TD*
G04 #@! TO.C,DB5*
X146939000Y-89567000D03*
X146939000Y-91567000D03*
G04 #@! TD*
D13*
G04 #@! TO.C,DB6*
X146939000Y-92716000D03*
X146939000Y-93466000D03*
G04 #@! TD*
D14*
G04 #@! TO.C,DB7*
X145669000Y-100044000D03*
D15*
X145669000Y-96044000D03*
G04 #@! TD*
D16*
G04 #@! TO.C,DB8*
X145040000Y-102362000D03*
X145790000Y-102362000D03*
G04 #@! TD*
D11*
G04 #@! TO.C,DC1*
X133111240Y-84059520D03*
X133111240Y-86059520D03*
G04 #@! TD*
G04 #@! TO.C,DC2*
X149479000Y-87614000D03*
X149479000Y-85614000D03*
G04 #@! TD*
G04 #@! TO.C,DC3*
X152146000Y-85487000D03*
X152146000Y-87487000D03*
G04 #@! TD*
G04 #@! TO.C,DC4*
X152146000Y-91805000D03*
X152146000Y-89805000D03*
G04 #@! TD*
G04 #@! TO.C,DC5*
X149479000Y-91805000D03*
X149479000Y-89805000D03*
G04 #@! TD*
D16*
G04 #@! TO.C,DC6*
X148977000Y-93345000D03*
X149727000Y-93345000D03*
G04 #@! TD*
D15*
G04 #@! TO.C,DC7*
X151003000Y-95917000D03*
D14*
X151003000Y-99917000D03*
G04 #@! TD*
D17*
G04 #@! TO.C,J1*
X134620000Y-97830000D03*
X134620000Y-102830000D03*
G04 #@! TD*
D18*
G04 #@! TO.C,R1*
X151488000Y-102489000D03*
X150738000Y-102489000D03*
G04 #@! TD*
G04 #@! TO.C,R2*
X145773000Y-103759000D03*
X145023000Y-103759000D03*
G04 #@! TD*
G04 #@! TO.C,R3*
X137426000Y-103632000D03*
X138176000Y-103632000D03*
G04 #@! TD*
D17*
G04 #@! TO.C,SW1*
X134620000Y-88940000D03*
X134620000Y-93940000D03*
G04 #@! TD*
M02*
