G04 #@! TF.GenerationSoftware,KiCad,Pcbnew,(5.0.1)-3*
G04 #@! TF.CreationDate,2019-03-05T12:35:37-07:00*
G04 #@! TF.ProjectId,BatteryPowerLevel,42617474657279506F7765724C657665,rev?*
G04 #@! TF.SameCoordinates,Original*
G04 #@! TF.FileFunction,Copper,L1,Top,Signal*
G04 #@! TF.FilePolarity,Positive*
%FSLAX46Y46*%
G04 Gerber Fmt 4.6, Leading zero omitted, Abs format (unit mm)*
G04 Created by KiCad (PCBNEW (5.0.1)-3) date 2019-03-05 12:35:37 PM*
%MOMM*%
%LPD*%
G01*
G04 APERTURE LIST*
G04 #@! TA.AperFunction,SMDPad,CuDef*
%ADD10R,0.800000X0.400000*%
G04 #@! TD*
G04 #@! TA.AperFunction,SMDPad,CuDef*
%ADD11R,0.400000X0.800000*%
G04 #@! TD*
G04 #@! TA.AperFunction,SMDPad,CuDef*
%ADD12R,0.700000X0.500000*%
G04 #@! TD*
G04 #@! TA.AperFunction,ComponentPad*
%ADD13C,2.000000*%
G04 #@! TD*
G04 #@! TA.AperFunction,ComponentPad*
%ADD14R,2.000000X2.000000*%
G04 #@! TD*
G04 #@! TA.AperFunction,SMDPad,CuDef*
%ADD15R,0.500000X0.700000*%
G04 #@! TD*
G04 #@! TA.AperFunction,ComponentPad*
%ADD16C,3.000000*%
G04 #@! TD*
G04 #@! TA.AperFunction,SMDPad,CuDef*
%ADD17R,0.300000X0.600000*%
G04 #@! TD*
G04 #@! TA.AperFunction,Conductor*
%ADD18C,0.350000*%
G04 #@! TD*
G04 APERTURE END LIST*
D10*
G04 #@! TO.P,DA3,1*
G04 #@! TO.N,Net-(DA3-Pad1)*
X138811000Y-90281000D03*
G04 #@! TO.P,DA3,2*
G04 #@! TO.N,Net-(DA2-Pad1)*
X138811000Y-88281000D03*
G04 #@! TD*
D11*
G04 #@! TO.P,DA1,2*
G04 #@! TO.N,Net-(DA1-Pad2)*
X135017000Y-85090000D03*
G04 #@! TO.P,DA1,1*
G04 #@! TO.N,Net-(DA1-Pad1)*
X137017000Y-85090000D03*
G04 #@! TD*
G04 #@! TO.P,DA2,1*
G04 #@! TO.N,Net-(DA2-Pad1)*
X140827000Y-86995000D03*
G04 #@! TO.P,DA2,2*
G04 #@! TO.N,Net-(DA1-Pad1)*
X138827000Y-86995000D03*
G04 #@! TD*
D10*
G04 #@! TO.P,DA4,2*
G04 #@! TO.N,Net-(DA3-Pad1)*
X140589000Y-89170000D03*
G04 #@! TO.P,DA4,1*
G04 #@! TO.N,Net-(DA4-Pad1)*
X140589000Y-91170000D03*
G04 #@! TD*
G04 #@! TO.P,DA5,2*
G04 #@! TO.N,Net-(DA4-Pad1)*
X138811000Y-91329000D03*
G04 #@! TO.P,DA5,1*
G04 #@! TO.N,Net-(DA5-Pad1)*
X138811000Y-93329000D03*
G04 #@! TD*
D12*
G04 #@! TO.P,DA6,1*
G04 #@! TO.N,Net-(DA5-Pad1)*
X140589000Y-92589000D03*
G04 #@! TO.P,DA6,2*
G04 #@! TO.N,Net-(DA6-Pad2)*
X140589000Y-93339000D03*
G04 #@! TD*
D13*
G04 #@! TO.P,DA7,1*
G04 #@! TO.N,Net-(DA7-Pad1)*
X139954000Y-99917000D03*
D14*
G04 #@! TO.P,DA7,2*
G04 #@! TO.N,Net-(DA6-Pad2)*
X139954000Y-95917000D03*
G04 #@! TD*
D15*
G04 #@! TO.P,DA8,2*
G04 #@! TO.N,Net-(DA8-Pad2)*
X138164000Y-102235000D03*
G04 #@! TO.P,DA8,1*
G04 #@! TO.N,Net-(DA7-Pad1)*
X137414000Y-102235000D03*
G04 #@! TD*
G04 #@! TO.P,DA9,1*
G04 #@! TO.N,Net-(DA8-Pad2)*
X139827000Y-102489000D03*
G04 #@! TO.P,DA9,2*
G04 #@! TO.N,Net-(DA10-Pad1)*
X140577000Y-102489000D03*
G04 #@! TD*
G04 #@! TO.P,DA10,2*
G04 #@! TO.N,Net-(DA10-Pad2)*
X139833000Y-104013000D03*
G04 #@! TO.P,DA10,1*
G04 #@! TO.N,Net-(DA10-Pad1)*
X140583000Y-104013000D03*
G04 #@! TD*
D11*
G04 #@! TO.P,DB1,1*
G04 #@! TO.N,Net-(DB1-Pad1)*
X144256000Y-85090000D03*
G04 #@! TO.P,DB1,2*
G04 #@! TO.N,Net-(DA1-Pad2)*
X142256000Y-85090000D03*
G04 #@! TD*
D10*
G04 #@! TO.P,DB2,2*
G04 #@! TO.N,Net-(DB1-Pad1)*
X144272000Y-86503000D03*
G04 #@! TO.P,DB2,1*
G04 #@! TO.N,Net-(DB2-Pad1)*
X144272000Y-88503000D03*
G04 #@! TD*
G04 #@! TO.P,DB3,2*
G04 #@! TO.N,Net-(DB2-Pad1)*
X146812000Y-86503000D03*
G04 #@! TO.P,DB3,1*
G04 #@! TO.N,Net-(DB3-Pad1)*
X146812000Y-88503000D03*
G04 #@! TD*
G04 #@! TO.P,DB4,1*
G04 #@! TO.N,Net-(DB4-Pad1)*
X144399000Y-91678000D03*
G04 #@! TO.P,DB4,2*
G04 #@! TO.N,Net-(DB3-Pad1)*
X144399000Y-89678000D03*
G04 #@! TD*
G04 #@! TO.P,DB5,2*
G04 #@! TO.N,Net-(DB4-Pad1)*
X146939000Y-89567000D03*
G04 #@! TO.P,DB5,1*
G04 #@! TO.N,Net-(DB5-Pad1)*
X146939000Y-91567000D03*
G04 #@! TD*
D12*
G04 #@! TO.P,DB6,1*
G04 #@! TO.N,Net-(DB5-Pad1)*
X146939000Y-92716000D03*
G04 #@! TO.P,DB6,2*
G04 #@! TO.N,Net-(DB6-Pad2)*
X146939000Y-93466000D03*
G04 #@! TD*
D13*
G04 #@! TO.P,DB7,1*
G04 #@! TO.N,Net-(DB7-Pad1)*
X145669000Y-100044000D03*
D14*
G04 #@! TO.P,DB7,2*
G04 #@! TO.N,Net-(DB6-Pad2)*
X145669000Y-96044000D03*
G04 #@! TD*
D15*
G04 #@! TO.P,DB8,1*
G04 #@! TO.N,Net-(DB7-Pad1)*
X145040000Y-102362000D03*
G04 #@! TO.P,DB8,2*
G04 #@! TO.N,Net-(DB8-Pad2)*
X145790000Y-102362000D03*
G04 #@! TD*
D10*
G04 #@! TO.P,DC1,1*
G04 #@! TO.N,Net-(DC1-Pad1)*
X133111240Y-84059520D03*
G04 #@! TO.P,DC1,2*
G04 #@! TO.N,Net-(DA1-Pad2)*
X133111240Y-86059520D03*
G04 #@! TD*
G04 #@! TO.P,DC2,1*
G04 #@! TO.N,Net-(DC2-Pad1)*
X149479000Y-87614000D03*
G04 #@! TO.P,DC2,2*
G04 #@! TO.N,Net-(DC1-Pad1)*
X149479000Y-85614000D03*
G04 #@! TD*
G04 #@! TO.P,DC3,2*
G04 #@! TO.N,Net-(DC2-Pad1)*
X152146000Y-85487000D03*
G04 #@! TO.P,DC3,1*
G04 #@! TO.N,Net-(DC3-Pad1)*
X152146000Y-87487000D03*
G04 #@! TD*
G04 #@! TO.P,DC4,1*
G04 #@! TO.N,Net-(DC4-Pad1)*
X152146000Y-91805000D03*
G04 #@! TO.P,DC4,2*
G04 #@! TO.N,Net-(DC3-Pad1)*
X152146000Y-89805000D03*
G04 #@! TD*
G04 #@! TO.P,DC5,1*
G04 #@! TO.N,Net-(DC5-Pad1)*
X149479000Y-91805000D03*
G04 #@! TO.P,DC5,2*
G04 #@! TO.N,Net-(DC4-Pad1)*
X149479000Y-89805000D03*
G04 #@! TD*
D15*
G04 #@! TO.P,DC6,2*
G04 #@! TO.N,Net-(DC6-Pad2)*
X148977000Y-93345000D03*
G04 #@! TO.P,DC6,1*
G04 #@! TO.N,Net-(DC5-Pad1)*
X149727000Y-93345000D03*
G04 #@! TD*
D14*
G04 #@! TO.P,DC7,2*
G04 #@! TO.N,Net-(DC6-Pad2)*
X151003000Y-95917000D03*
D13*
G04 #@! TO.P,DC7,1*
G04 #@! TO.N,Net-(DC7-Pad1)*
X151003000Y-99917000D03*
G04 #@! TD*
D16*
G04 #@! TO.P,J1,1*
G04 #@! TO.N,Net-(J1-Pad1)*
X134620000Y-97830000D03*
G04 #@! TO.P,J1,2*
G04 #@! TO.N,Net-(J1-Pad2)*
X134620000Y-102830000D03*
G04 #@! TD*
D17*
G04 #@! TO.P,R1,1*
G04 #@! TO.N,Net-(DC7-Pad1)*
X151488000Y-102489000D03*
G04 #@! TO.P,R1,2*
G04 #@! TO.N,Net-(J1-Pad2)*
X150738000Y-102489000D03*
G04 #@! TD*
G04 #@! TO.P,R2,1*
G04 #@! TO.N,Net-(DB8-Pad2)*
X145773000Y-103759000D03*
G04 #@! TO.P,R2,2*
G04 #@! TO.N,Net-(J1-Pad2)*
X145023000Y-103759000D03*
G04 #@! TD*
G04 #@! TO.P,R3,2*
G04 #@! TO.N,Net-(J1-Pad2)*
X137426000Y-103632000D03*
G04 #@! TO.P,R3,1*
G04 #@! TO.N,Net-(DA10-Pad2)*
X138176000Y-103632000D03*
G04 #@! TD*
D16*
G04 #@! TO.P,SW1,2*
G04 #@! TO.N,Net-(DA1-Pad2)*
X134620000Y-88940000D03*
G04 #@! TO.P,SW1,1*
G04 #@! TO.N,Net-(J1-Pad1)*
X134620000Y-93940000D03*
G04 #@! TD*
D18*
G04 #@! TO.N,Net-(DA1-Pad1)*
X137017000Y-85185000D02*
X138827000Y-86995000D01*
X137017000Y-85090000D02*
X137017000Y-85185000D01*
G04 #@! TO.N,Net-(DB1-Pad1)*
X144272000Y-85106000D02*
X144256000Y-85090000D01*
X144272000Y-86503000D02*
X144272000Y-85106000D01*
G04 #@! TO.N,Net-(DC1-Pad1)*
X149479000Y-85064000D02*
X149479000Y-85614000D01*
X147219000Y-82804000D02*
X149479000Y-85064000D01*
X135116760Y-82804000D02*
X147219000Y-82804000D01*
X133861240Y-84059520D02*
X135116760Y-82804000D01*
X133111240Y-84059520D02*
X133861240Y-84059520D01*
G04 #@! TO.N,Net-(J1-Pad1)*
X134620000Y-97830000D02*
X134620000Y-93940000D01*
G04 #@! TO.N,Net-(J1-Pad2)*
X134620000Y-102830000D02*
X135215000Y-102830000D01*
X135215000Y-102830000D02*
X136017000Y-103632000D01*
X136017000Y-103632000D02*
X137426000Y-103632000D01*
X145023000Y-104409000D02*
X144403000Y-105029000D01*
X145023000Y-103759000D02*
X145023000Y-104409000D01*
X137426000Y-104282000D02*
X137426000Y-103632000D01*
X138173000Y-105029000D02*
X137426000Y-104282000D01*
X144403000Y-105029000D02*
X138173000Y-105029000D01*
X144403000Y-105029000D02*
X148717000Y-105029000D01*
X150738000Y-102639000D02*
X150738000Y-102489000D01*
X148717000Y-104660000D02*
X150738000Y-102639000D01*
X148717000Y-105029000D02*
X148717000Y-104660000D01*
G04 #@! TO.N,Net-(DA1-Pad2)*
X133111240Y-87431240D02*
X133111240Y-86059520D01*
X134620000Y-88940000D02*
X133111240Y-87431240D01*
X134467000Y-85090000D02*
X134239000Y-85318000D01*
X135017000Y-85090000D02*
X134467000Y-85090000D01*
X134239000Y-85318000D02*
X134239000Y-85852000D01*
X134031480Y-86059520D02*
X133111240Y-86059520D01*
X134239000Y-85852000D02*
X134031480Y-86059520D01*
X135017000Y-84185000D02*
X135017000Y-85090000D01*
X135509000Y-83693000D02*
X135017000Y-84185000D01*
X141609000Y-83693000D02*
X135509000Y-83693000D01*
X142256000Y-85090000D02*
X142256000Y-84340000D01*
X142256000Y-84340000D02*
X141609000Y-83693000D01*
G04 #@! TO.N,Net-(DA2-Pad1)*
X140827000Y-87195000D02*
X140843000Y-87211000D01*
X140827000Y-86995000D02*
X140827000Y-87195000D01*
X140843000Y-87211000D02*
X140843000Y-87757000D01*
X140319000Y-88281000D02*
X138811000Y-88281000D01*
X140843000Y-87757000D02*
X140319000Y-88281000D01*
G04 #@! TO.N,Net-(DA3-Pad1)*
X139561000Y-90281000D02*
X138811000Y-90281000D01*
X139700000Y-90142000D02*
X139561000Y-90281000D01*
X139700000Y-89309000D02*
X139700000Y-90142000D01*
X139839000Y-89170000D02*
X139700000Y-89309000D01*
X140589000Y-89170000D02*
X139839000Y-89170000D01*
G04 #@! TO.N,Net-(DA4-Pad1)*
X138970000Y-91170000D02*
X138811000Y-91329000D01*
X140589000Y-91170000D02*
X138970000Y-91170000D01*
G04 #@! TO.N,Net-(DA5-Pad1)*
X139561000Y-93329000D02*
X138811000Y-93329000D01*
X139700000Y-93190000D02*
X139561000Y-93329000D01*
X139700000Y-92778000D02*
X139700000Y-93190000D01*
X139889000Y-92589000D02*
X139700000Y-92778000D01*
X140589000Y-92589000D02*
X139889000Y-92589000D01*
G04 #@! TO.N,Net-(DA6-Pad2)*
X140589000Y-95282000D02*
X139954000Y-95917000D01*
X140589000Y-93339000D02*
X140589000Y-95282000D01*
G04 #@! TO.N,Net-(DA7-Pad1)*
X138539787Y-99917000D02*
X139954000Y-99917000D01*
X137414000Y-101042787D02*
X138539787Y-99917000D01*
X137414000Y-102235000D02*
X137414000Y-101042787D01*
G04 #@! TO.N,Net-(DA8-Pad2)*
X139573000Y-102235000D02*
X139827000Y-102489000D01*
X138164000Y-102235000D02*
X139573000Y-102235000D01*
G04 #@! TO.N,Net-(DA10-Pad1)*
X140577000Y-104007000D02*
X140583000Y-104013000D01*
X140577000Y-102489000D02*
X140577000Y-104007000D01*
G04 #@! TO.N,Net-(DA10-Pad2)*
X138557000Y-104013000D02*
X138176000Y-103632000D01*
X139833000Y-104013000D02*
X138557000Y-104013000D01*
G04 #@! TO.N,Net-(DB2-Pad1)*
X146062000Y-86503000D02*
X145542000Y-87023000D01*
X146812000Y-86503000D02*
X146062000Y-86503000D01*
X144472000Y-88503000D02*
X144272000Y-88503000D01*
X145542000Y-87433000D02*
X144472000Y-88503000D01*
X145542000Y-87023000D02*
X145542000Y-87433000D01*
G04 #@! TO.N,Net-(DB3-Pad1)*
X145437000Y-89678000D02*
X144399000Y-89678000D01*
X146812000Y-88503000D02*
X146612000Y-88503000D01*
X146612000Y-88503000D02*
X145437000Y-89678000D01*
G04 #@! TO.N,Net-(DB4-Pad1)*
X145149000Y-91678000D02*
X145796000Y-91031000D01*
X144399000Y-91678000D02*
X145149000Y-91678000D01*
X146739000Y-89567000D02*
X146939000Y-89567000D01*
X145796000Y-90510000D02*
X146739000Y-89567000D01*
X145796000Y-91031000D02*
X145796000Y-90510000D01*
G04 #@! TO.N,Net-(DB5-Pad1)*
X146939000Y-91567000D02*
X146939000Y-92716000D01*
G04 #@! TO.N,Net-(DB6-Pad2)*
X145669000Y-94736000D02*
X146939000Y-93466000D01*
X145669000Y-96044000D02*
X145669000Y-94736000D01*
G04 #@! TO.N,Net-(DB7-Pad1)*
X145040000Y-100673000D02*
X145040000Y-102362000D01*
X145669000Y-100044000D02*
X145040000Y-100673000D01*
G04 #@! TO.N,Net-(DB8-Pad2)*
X145790000Y-103742000D02*
X145773000Y-103759000D01*
X145790000Y-102362000D02*
X145790000Y-103742000D01*
G04 #@! TO.N,Net-(DC2-Pad1)*
X151396000Y-85487000D02*
X150876000Y-86007000D01*
X152146000Y-85487000D02*
X151396000Y-85487000D01*
X150876000Y-86007000D02*
X150876000Y-87376000D01*
X150638000Y-87614000D02*
X149479000Y-87614000D01*
X150876000Y-87376000D02*
X150638000Y-87614000D01*
G04 #@! TO.N,Net-(DC3-Pad1)*
X152146000Y-89805000D02*
X152146000Y-87487000D01*
G04 #@! TO.N,Net-(DC4-Pad1)*
X151114000Y-91805000D02*
X152146000Y-91805000D01*
X150749000Y-91440000D02*
X151114000Y-91805000D01*
X150749000Y-90325000D02*
X150749000Y-91440000D01*
X149479000Y-89805000D02*
X150229000Y-89805000D01*
X150229000Y-89805000D02*
X150749000Y-90325000D01*
G04 #@! TO.N,Net-(DC5-Pad1)*
X149727000Y-92053000D02*
X149479000Y-91805000D01*
X149727000Y-93345000D02*
X149727000Y-92053000D01*
G04 #@! TO.N,Net-(DC6-Pad2)*
X148977000Y-94045000D02*
X148977000Y-93345000D01*
X148977000Y-95241000D02*
X148977000Y-94045000D01*
X149653000Y-95917000D02*
X148977000Y-95241000D01*
X151003000Y-95917000D02*
X149653000Y-95917000D01*
G04 #@! TO.N,Net-(DC7-Pad1)*
X151488000Y-100402000D02*
X151488000Y-102489000D01*
X151003000Y-99917000D02*
X151488000Y-100402000D01*
G04 #@! TD*
M02*
